<?xml version="1.0" standalone="no"?>
<!DOCTYPE svg PUBLIC "-//W3C//DTD SVG 20010904//EN"
 "http://www.w3.org/TR/2001/REC-SVG-20010904/DTD/svg10.dtd">
<svg version="1.0" xmlns="http://www.w3.org/2000/svg"
 width="512.000000pt" height="512.000000pt" viewBox="0 0 512.000000 512.000000"
 preserveAspectRatio="xMidYMid meet">

<g transform="translate(0.000000,512.000000) scale(0.100000,-0.100000)"
fill="#000000" stroke="none">
<path d="M2330 5105 c-824 -100 -1489 -735 -1636 -1560 -22 -128 -29 -361 -14
-480 61 -488 406 -1237 945 -2050 278 -419 576 -792 735 -921 171 -138 265
-127 449 51 183 177 427 490 686 880 542 818 882 1551 946 2040 14 111 7 356
-15 480 -76 425 -295 818 -611 1097 -408 360 -948 528 -1485 463z m510 -310
c316 -56 605 -209 841 -444 235 -235 370 -485 441 -814 29 -138 32 -410 5
-536 -97 -451 -418 -1112 -873 -1797 -217 -327 -525 -726 -659 -854 l-36 -35
-93 95 c-477 492 -1161 1621 -1388 2290 -87 259 -114 411 -105 609 34 765 630
1404 1399 1501 103 13 356 4 468 -15z"/>
<path d="M2335 4320 c-389 -84 -695 -352 -828 -727 -78 -218 -80 -492 -6 -718
92 -278 322 -535 592 -660 305 -141 658 -135 962 15 124 61 207 124 311 232
153 159 243 331 289 553 23 107 23 303 1 418 -81 424 -399 764 -814 874 -135
36 -374 42 -507 13z m412 -300 c369 -88 624 -409 625 -785 0 -180 -39 -312
-138 -461 -123 -186 -314 -310 -539 -349 -110 -19 -160 -19 -270 0 -225 39
-416 163 -539 349 -99 150 -139 282 -138 461 2 375 255 695 620 785 107 26
271 26 379 0z"/>
</g>
</svg>
