<?xml version="1.0" standalone="no"?>
<!DOCTYPE svg PUBLIC "-//W3C//DTD SVG 20010904//EN"
 "http://www.w3.org/TR/2001/REC-SVG-20010904/DTD/svg10.dtd">
<svg version="1.0" xmlns="http://www.w3.org/2000/svg"
 width="938.000000pt" height="1280.000000pt" viewBox="0 0 938.000000 1280.000000"
 preserveAspectRatio="xMidYMid meet">
<metadata>
Created by potrace 1.15, written by Peter Selinger 2001-2017
</metadata>
<g transform="translate(0.000000,1280.000000) scale(0.100000,-0.100000)"
fill="#000000" stroke="none">
<path d="M5011 12785 c-275 -60 -445 -197 -506 -409 -27 -93 -23 -241 10 -373
26 -101 27 -113 16 -183 -41 -261 -52 -372 -58 -585 l-6 -230 -38 -104 c-108
-291 -191 -673 -224 -1038 l-7 -71 -44 -7 c-24 -3 -80 -24 -123 -46 -138 -69
-244 -205 -287 -370 -20 -74 -22 -209 -5 -284 30 -128 126 -265 246 -350 58
-42 63 -48 69 -91 3 -26 6 -81 6 -123 0 -154 41 -569 90 -916 16 -110 26 -203
22 -206 -4 -4 -27 -13 -52 -22 -25 -8 -159 -56 -298 -106 -224 -81 -261 -91
-320 -91 -37 0 -77 6 -89 13 -13 6 -53 53 -90 104 -81 109 -214 265 -298 348
-58 57 -148 127 -312 241 l-73 52 -108 -65 c-59 -36 -179 -101 -267 -145 -143
-73 -631 -304 -696 -330 -22 -10 -31 -6 -75 27 -27 21 -92 59 -146 85 -61 30
-168 100 -292 191 -108 79 -253 179 -323 221 l-127 78 -29 -53 c-66 -118 -128
-197 -276 -351 -86 -88 -171 -180 -189 -203 -52 -66 -112 -175 -112 -204 0
-36 35 -85 96 -133 45 -36 60 -60 134 -206 45 -91 152 -293 238 -450 86 -157
192 -361 238 -454 l82 -169 -57 -56 c-32 -31 -70 -81 -85 -113 -24 -49 -28
-67 -24 -121 3 -46 10 -72 27 -96 26 -36 90 -70 133 -71 l27 0 -14 -41 c-21
-57 -19 -123 4 -168 19 -36 83 -101 100 -101 5 0 11 -22 15 -49 7 -53 48 -119
91 -147 15 -10 54 -25 88 -34 l62 -17 78 -194 c89 -221 278 -721 407 -1074 70
-192 125 -316 275 -625 103 -212 214 -440 246 -507 l58 -122 203 70 c737 256
961 329 1012 329 l52 0 46 -63 c58 -78 235 -290 443 -529 88 -101 177 -203
197 -228 l36 -44 79 60 c159 123 312 218 629 391 l182 99 66 -10 c45 -7 67
-15 71 -26 2 -8 119 -399 260 -868 140 -469 255 -854 255 -856 0 -2 -35 7 -77
19 -120 35 -245 48 -328 35 -200 -31 -304 -150 -328 -375 l-11 -105 -2203 0
c-2190 0 -2203 0 -2223 -20 -26 -26 -26 -74 0 -100 20 -20 33 -20 2305 -20
l2285 0 -7 43 c-11 65 -8 227 5 273 16 54 50 103 90 131 110 74 335 42 607
-86 58 -27 105 -48 105 -45 0 3 -133 447 -295 989 -162 541 -295 986 -295 990
0 3 75 3 168 0 92 -3 219 -2 282 3 63 5 116 8 117 7 1 -1 48 -287 103 -636 55
-349 134 -845 175 -1104 41 -258 75 -475 75 -482 0 -10 46 -13 210 -13 l210 0
0 113 c0 61 5 130 11 152 16 58 55 104 107 128 39 17 60 19 141 14 142 -8 301
-64 499 -177 39 -22 72 -37 72 -32 0 4 -16 55 -35 113 -84 247 -173 603 -280
1129 -58 287 -165 852 -165 875 0 8 28 19 78 30 115 24 386 100 480 135 45 16
84 30 85 30 1 0 2 -222 2 -493 1 -596 19 -921 86 -1547 32 -303 35 -322 76
-443 l27 -78 250 6 c138 2 455 7 705 10 304 4 461 10 475 17 49 26 59 69 25
112 l-22 27 -665 -3 -665 -3 -9 30 c-12 40 -43 292 -68 545 -52 535 -75 1069
-66 1540 5 246 9 338 19 346 6 7 73 31 147 55 74 23 136 43 138 44 9 7 76 223
97 310 71 298 84 457 95 1145 5 322 15 650 21 730 6 80 12 186 14 236 4 91 4
92 55 170 291 445 313 1024 70 1828 -41 136 -48 171 -37 177 7 4 47 32 88 61
l74 54 -1 129 c-3 266 -107 611 -268 885 -28 48 -43 90 -57 162 -43 224 -68
551 -50 673 6 39 28 135 51 215 48 171 102 435 125 610 37 281 27 620 -31
1105 -37 314 -107 515 -226 650 -37 42 -45 59 -55 119 -41 240 -262 439 -628
564 -294 100 -584 139 -960 129 -295 -9 -521 -41 -815 -115 l-150 -39 -31 49
c-38 59 -115 130 -172 157 -104 50 -239 63 -366 36z m272 -141 c65 -22 148
-100 178 -166 33 -75 33 -212 0 -280 -33 -68 -98 -124 -166 -143 -78 -23 -214
-18 -244 9 -26 23 -28 89 -6 143 32 76 8 127 -57 121 -28 -3 -36 -10 -56 -49
-12 -25 -27 -72 -32 -103 -31 -193 110 -301 347 -267 105 16 175 45 236 101
91 83 137 193 137 328 0 85 -13 76 168 121 693 174 1403 136 1875 -100 208
-105 341 -265 340 -413 l0 -61 65 -69 c108 -115 170 -277 206 -533 32 -228 60
-590 60 -778 0 -313 -57 -672 -161 -1018 l-27 -89 -40 7 c-59 9 -98 35 -121
80 -18 36 -20 59 -19 225 1 182 2 187 34 280 99 286 6 627 -199 727 -47 24
-68 28 -136 27 -211 -1 -362 -153 -416 -419 -18 -85 -20 -128 -17 -293 3 -212
8 -198 -64 -186 l-38 7 0 81 c0 100 -25 434 -46 616 -73 639 -212 1052 -407
1209 -61 49 -190 108 -277 128 -100 22 -304 22 -430 -1 -195 -34 -414 -106
-675 -221 -172 -76 -225 -93 -299 -101 -93 -9 -135 4 -168 51 -41 61 -114 210
-148 305 -147 407 -27 653 360 735 77 17 177 12 243 -11z m1096 -889 c97 -23
185 -70 244 -129 158 -157 280 -590 342 -1211 20 -208 35 -449 35 -581 l0
-111 46 -7 c26 -3 115 -6 199 -6 l152 0 -15 78 c-10 52 -15 141 -15 277 -1
176 2 210 21 280 12 44 37 105 56 135 59 97 175 154 265 130 192 -51 267 -439
126 -651 -27 -41 -59 -55 -101 -45 l-27 7 34 17 c47 24 60 63 31 100 -12 15
-29 39 -37 54 -21 38 -36 169 -29 245 8 79 -9 113 -60 113 -55 0 -68 -25 -73
-137 -4 -89 7 -181 32 -260 7 -20 4 -23 -23 -23 -39 0 -62 -23 -62 -63 0 -41
71 -125 138 -165 37 -21 60 -27 107 -27 l60 0 2 -110 c1 -129 21 -223 61 -280
33 -48 127 -102 193 -111 l46 -6 6 -167 c7 -176 27 -359 57 -504 l18 -89 -85
-66 c-544 -428 -1262 -766 -2038 -961 -214 -53 -629 -130 -641 -118 -3 3 -12
49 -21 104 -19 123 -45 173 -109 203 -51 25 -71 24 -247 -11 -188 -37 -362
-84 -595 -161 -85 -27 -157 -46 -162 -42 -30 35 -143 1164 -116 1164 3 0 44
-10 89 -21 102 -27 244 -29 337 -6 146 38 302 136 424 268 125 135 270 377
264 440 -4 46 -46 75 -90 63 -27 -8 -39 -22 -75 -91 -143 -277 -338 -467 -542
-527 -238 -70 -576 74 -683 291 -79 161 -31 404 102 516 106 90 215 106 409
62 97 -22 139 -26 219 -23 90 3 104 6 175 41 171 85 267 233 302 466 26 172
14 351 -26 384 -28 22 -74 22 -98 -2 -17 -17 -19 -35 -19 -188 0 -139 -3 -181
-20 -245 -39 -143 -103 -230 -207 -279 -88 -42 -146 -40 -392 16 -20 5 -23 12
-23 58 0 68 23 255 50 404 68 370 204 768 368 1070 l66 122 100 -6 c128 -7
197 11 415 106 269 118 476 187 650 216 108 18 312 18 390 0z m-1691 -167 l33
-63 -57 -103 c-31 -56 -58 -101 -59 -100 -3 4 22 249 31 301 3 20 9 35 12 33
4 -3 22 -33 40 -68z m3721 -3563 c46 -139 77 -284 86 -405 l7 -85 -94 -60
c-449 -287 -1209 -559 -2009 -719 -339 -68 -790 -139 -803 -125 -4 4 -110 474
-121 540 l-7 36 84 13 c305 45 739 149 1041 251 615 206 1214 520 1627 853
l45 36 52 -107 c28 -60 70 -162 92 -228z m-3674 -610 c-16 -8 -37 -14 -45 -14
-8 0 1 7 20 14 46 18 64 17 25 0z m-95 -30 c-19 -7 -42 -13 -50 -13 -8 0 1 6
20 13 19 7 42 13 50 13 8 0 -1 -6 -20 -13z m3774 -330 c100 -349 136 -572 136
-846 0 -197 -19 -342 -65 -489 -110 -349 -361 -633 -721 -813 -132 -66 -500
-222 -617 -261 -103 -34 -215 -61 -223 -54 -2 3 6 40 18 84 17 63 22 108 22
219 1 139 1 141 -31 204 -18 35 -33 66 -33 68 0 1 9 3 19 3 26 0 214 66 275
97 202 102 366 262 458 448 133 268 153 634 57 1055 -17 74 -33 146 -35 160
-4 24 3 28 145 84 83 32 235 100 338 151 103 51 191 90 195 86 4 -3 31 -91 62
-196z m-3279 161 c52 -24 122 -92 148 -143 50 -96 102 -381 95 -517 -5 -98
-28 -152 -92 -224 -107 -121 -112 -190 -26 -384 40 -91 51 -129 53 -175 2 -46
-1 -58 -13 -56 -8 1 -69 20 -135 44 -150 53 -215 56 -302 14 l-56 -28 -46 24
c-72 38 -109 83 -132 163 -43 149 -52 172 -75 204 -44 57 -72 65 -199 57 -103
-6 -117 -5 -164 15 -67 29 -131 101 -178 199 -32 66 -37 86 -37 152 -1 67 2
81 29 125 28 45 41 54 151 109 76 38 146 81 188 118 75 64 103 70 159 37 40
-24 112 -35 161 -26 43 8 92 55 101 96 4 16 12 33 19 37 7 5 19 19 26 32 23
44 94 114 135 132 56 26 129 24 190 -5z m-4491 -82 c-1 -21 -5 -75 -9 -119
-10 -102 19 -239 77 -368 49 -109 55 -165 34 -293 -10 -54 -19 -100 -20 -102
-5 -4 -284 513 -367 680 -40 81 -70 150 -67 153 10 10 218 11 260 1 l37 -8 11
43 c15 54 19 61 33 56 7 -2 11 -21 11 -43z m6908 -269 c5 -16 22 -95 38 -175
161 -796 -100 -1269 -778 -1409 -142 -30 -388 -45 -537 -35 l-120 9 -6 85
c-15 214 -120 372 -315 472 l-81 42 -17 110 c-10 61 -36 194 -58 296 -21 102
-40 192 -41 200 -2 11 20 17 88 27 610 85 1188 213 1640 362 83 27 156 48 164
48 8 -1 18 -15 23 -32z m-6104 -34 c20 -10 56 -36 79 -57 l43 -39 80 -410 c44
-225 92 -477 108 -560 37 -196 37 -196 -126 -55 -209 182 -239 227 -285 425
-15 61 -49 182 -78 270 -45 136 -52 172 -53 240 0 67 3 87 24 123 13 23 38 51
55 62 39 25 105 26 153 1z m897 -23 c27 -26 39 -49 55 -113 12 -44 44 -129 72
-190 67 -145 68 -185 10 -282 -60 -100 -70 -128 -82 -249 -14 -140 -33 -205
-71 -248 -61 -70 -114 -68 -242 7 -87 51 -120 52 -158 6 -16 -19 -29 -28 -29
-21 0 7 -36 199 -80 426 -44 228 -80 417 -80 421 0 3 9 1 19 -5 11 -5 28 -10
38 -10 17 0 19 6 15 59 -7 102 32 133 110 87 35 -20 198 -63 203 -53 1 1 14
33 30 71 40 97 67 126 116 126 31 0 47 -7 74 -32z m-1371 -1198 l55 -81 -31
-19 c-49 -30 -188 -64 -218 -53 -68 23 -10 146 100 212 19 11 36 21 37 21 1 0
27 -36 57 -80z m4917 3 c56 -52 102 -138 120 -221 11 -53 8 -159 -7 -223 -6
-26 -5 -26 84 -38 l90 -13 15 -36 c37 -93 60 -246 50 -332 l-6 -50 -90 0 -90
0 -63 -64 c-134 -133 -318 -193 -513 -166 -189 26 -413 117 -521 212 -102 89
-145 175 -105 208 24 20 95 3 186 -46 222 -118 297 -146 346 -128 16 5 32 21
37 36 14 40 -12 73 -76 93 -29 10 -116 50 -193 91 -77 40 -167 79 -199 88 -45
11 -70 25 -103 58 -81 78 -111 151 -93 219 l11 41 45 -7 c87 -13 287 -91 486
-191 59 -30 118 -54 131 -54 35 0 59 32 55 71 -3 29 -11 38 -65 70 -35 20
-127 64 -205 99 -79 35 -145 67 -146 72 -2 5 -33 27 -67 49 -87 54 -127 101
-119 137 4 15 7 28 8 29 1 1 36 11 79 22 l79 20 61 -20 c102 -35 478 -186 645
-260 86 -38 160 -69 165 -69 4 0 -19 36 -53 79 -73 97 -75 103 -84 214 l-7 88
32 -17 c18 -9 54 -36 80 -61z m-2204 -243 c43 -26 66 -74 93 -195 12 -55 29
-116 37 -135 17 -40 36 -164 98 -630 25 -184 47 -351 50 -370 4 -29 0 -25 -26
30 -68 143 -139 392 -139 484 0 67 -18 107 -72 158 -38 36 -62 74 -107 170
-69 144 -106 246 -116 311 -18 117 26 197 107 197 25 0 56 -8 75 -20z m-2568
-11 c20 -7 40 -26 57 -55 23 -39 24 -46 12 -71 -16 -34 -75 -68 -156 -88 -71
-18 -94 -15 -111 19 -28 52 31 149 114 187 48 22 44 22 84 8z m5668 -277 c18
-24 38 -62 44 -85 15 -58 7 -183 -21 -297 -20 -82 -32 -106 -83 -178 l-59 -83
-28 18 c-15 10 -81 54 -146 97 l-119 79 -1 156 c-1 127 -5 171 -22 235 -12 44
-22 81 -22 83 0 1 53 3 118 4 64 1 144 5 177 9 109 14 125 10 162 -38z m-5523
-37 c14 -13 26 -31 26 -40 0 -20 -41 -58 -84 -79 -73 -35 -156 -6 -156 54 0
26 5 30 63 49 34 12 69 26 77 31 24 16 45 12 74 -15z m6972 3 c-7 -30 -26
-539 -29 -788 l-2 -195 -65 -39 c-259 -157 -769 -308 -1361 -405 -234 -38
-765 -101 -855 -101 l-34 0 0 330 c0 271 -3 337 -15 367 -8 19 -15 49 -15 65
0 16 -7 43 -16 59 -8 17 -14 32 -12 32 115 56 166 87 214 131 54 48 64 54 121
60 l62 7 226 -151 c125 -83 232 -153 239 -156 7 -3 40 35 79 91 64 90 70 95
103 95 58 0 225 37 331 74 111 39 506 207 616 262 130 66 325 200 381 263 25
27 40 27 32 -1z m-4213 -185 c14 -16 38 -55 52 -88 31 -69 60 -105 87 -105 10
0 40 20 66 44 60 55 81 66 131 66 31 0 49 -7 73 -29 l33 -29 1 -164 c1 -158 2
-165 34 -248 18 -47 43 -114 57 -150 36 -96 40 -174 11 -230 -39 -76 -116
-104 -313 -116 -88 -5 -112 -4 -121 7 -6 8 -27 148 -48 311 -21 163 -52 400
-70 527 -18 127 -29 231 -26 231 3 0 18 -12 33 -27z m-2033 -568 c20 -22 27
-51 51 -218 31 -213 84 -632 95 -745 6 -62 4 -75 -11 -92 -22 -25 -67 -26 -88
-2 -45 50 -55 114 -42 274 10 118 3 139 -71 207 -30 28 -54 59 -54 70 0 11 18
37 41 58 39 36 40 40 34 83 -4 25 -20 87 -37 139 -37 116 -37 202 1 232 31 26
53 24 81 -6z m325 -164 c51 -23 91 -70 106 -123 6 -23 17 -51 25 -64 19 -29
11 -58 -36 -130 l-38 -58 19 -44 c11 -24 19 -66 19 -94 0 -41 -5 -54 -29 -79
-19 -19 -40 -29 -59 -29 -28 0 -42 -15 -55 -60 -6 -20 -10 4 -56 360 -36 278
-38 307 -24 323 21 22 76 22 128 -2z m5885 -412 c-12 -221 -33 -394 -66 -550
-29 -141 -70 -280 -87 -295 -6 -6 -77 -33 -156 -59 -80 -26 -159 -56 -175 -65
-40 -23 -171 -70 -316 -114 -254 -76 -640 -148 -998 -186 -227 -24 -282 -25
-282 -7 -1 33 -131 354 -151 370 -66 53 -149 -28 -108 -105 10 -19 9 -20 -12
-14 -63 18 -75 17 -102 -4 -30 -24 -37 -73 -14 -104 8 -10 58 -35 113 -55 119
-44 135 -66 52 -76 -29 -3 -163 -5 -298 -3 l-245 3 76 42 c86 47 150 96 229
174 30 30 77 72 103 94 93 74 117 163 117 432 l0 182 43 5 c23 3 98 10 167 16
832 73 1595 246 2015 458 55 27 101 49 103 47 2 -1 -2 -85 -8 -186z m-4920
-80 c38 -8 51 -16 55 -32 13 -58 75 -522 71 -533 -2 -6 -34 -26 -69 -44 -53
-26 -71 -30 -102 -24 -46 8 -110 56 -149 111 -42 61 -44 117 -7 297 33 157 51
203 92 223 30 16 45 16 109 2z m249 -116 c55 -82 124 -342 125 -469 1 -107
-22 -138 -73 -96 -18 15 -26 52 -61 302 -22 157 -40 291 -40 298 0 24 19 11
49 -35z m3401 -1157 c0 -3 27 -148 60 -323 112 -599 201 -1018 284 -1335 23
-93 41 -168 38 -168 -2 0 -35 11 -72 24 -242 88 -461 70 -567 -45 -52 -57 -92
-171 -93 -261 l0 -48 -80 0 c-44 0 -80 3 -80 8 0 4 -72 465 -161 1025 -89 560
-159 1020 -156 1023 3 3 59 10 124 15 137 10 496 54 598 73 80 15 105 18 105
12z"/>
<path d="M5639 10980 c-9 -5 -22 -23 -28 -39 -17 -39 7 -88 47 -97 225 -48
315 -97 429 -229 28 -32 36 -36 60 -30 95 23 81 120 -32 223 -67 61 -187 122
-309 157 -93 26 -140 31 -167 15z"/>
<path d="M4920 10915 c-183 -75 -357 -211 -409 -317 -20 -42 -21 -50 -9 -75
31 -65 99 -62 141 4 58 91 192 188 348 253 74 31 99 54 99 95 0 19 -41 62 -65
69 -11 3 -57 -10 -105 -29z"/>
<path d="M5574 10231 c-55 -34 -79 -78 -79 -148 0 -47 5 -68 21 -90 75 -102
211 -99 281 6 49 72 23 175 -56 228 -44 30 -122 31 -167 4z m106 -126 c18 -22
8 -50 -19 -50 -32 0 -49 28 -32 49 17 20 35 20 51 1z"/>
<path d="M4654 10141 c-56 -25 -87 -71 -92 -137 -15 -178 219 -249 307 -94 30
54 26 131 -9 180 -26 36 -90 70 -135 70 -16 0 -48 -9 -71 -19z m96 -126 c20
-25 8 -50 -25 -50 -21 0 -31 5 -33 18 -4 21 14 47 33 47 7 0 18 -7 25 -15z"/>
<path d="M5941 9405 c-77 -18 -110 -70 -77 -120 21 -32 57 -40 118 -26 55 12
108 15 108 4 0 -18 -156 -210 -244 -302 -169 -174 -313 -280 -501 -371 -292
-141 -607 -187 -917 -134 -31 5 -41 2 -62 -19 -33 -33 -34 -76 -3 -104 43 -41
277 -63 462 -44 429 44 784 218 1105 540 122 122 285 329 305 387 l12 34 41
-30 c23 -17 56 -54 73 -85 33 -60 62 -75 108 -59 14 5 32 22 39 37 18 36 3 80
-48 148 -83 111 -195 160 -364 158 -55 0 -125 -7 -155 -14z"/>
</g>
</svg>
