<?xml version="1.0" encoding="iso-8859-1"?>
<!-- Generator: Adobe Illustrator 19.0.0, SVG Export Plug-In . SVG Version: 6.00 Build 0)  -->
<svg version="1.1" id="Layer_1" xmlns="http://www.w3.org/2000/svg" xmlns:xlink="http://www.w3.org/1999/xlink" x="0px" y="0px"
	 viewBox="0 0 512.853 512.853" style="enable-background:new 0 0 512.853 512.853;" xml:space="preserve">
<g transform="translate(1 1)">
	<g>
		<g>
			<path d="M348.867,192.28v-78.507c0-11.093-9.387-20.48-20.48-20.48h-61.44c-11.093,0-20.48,9.387-20.48,20.48v78.507
				c0,11.093,9.387,20.48,20.48,20.48h61.44C339.48,212.76,348.867,203.373,348.867,192.28z M263.533,192.28v-78.507
				c0-1.707,1.707-3.413,3.413-3.413h61.44c1.707,0,3.413,1.707,3.413,3.413v78.507c0,1.707-1.707,3.413-3.413,3.413h-61.44
				C265.24,195.693,263.533,193.987,263.533,192.28z"/>
			<path d="M200.387,93.293h-61.44c-11.093,0-20.48,9.387-20.48,20.48v78.507c0,11.093,9.387,20.48,20.48,20.48h61.44
				c11.093,0,20.48-9.387,20.48-20.48v-78.507C220.867,102.68,211.48,93.293,200.387,93.293z M203.8,192.28
				c0,1.707-1.707,3.413-3.413,3.413h-61.44c-1.707,0-3.413-1.707-3.413-3.413v-78.507c0-1.707,1.707-3.413,3.413-3.413h61.44
				c1.707,0,3.413,1.707,3.413,3.413V192.28z"/>
			<path d="M101.4,340.76c-9.387,0-17.067,7.68-17.067,17.067s7.68,17.067,17.067,17.067c9.387,0,17.067-7.68,17.067-17.067
				S110.787,340.76,101.4,340.76z"/>
			<path d="M485.4,366.36c13.653,0,25.6-11.947,26.453-25.6V170.093c0-7.68-2.56-14.507-7.68-19.627l-74.24-81.92
				c-5.973-5.973-13.653-9.387-21.333-9.387h-384C10.947,59.16-1,70.253-1,84.76v17.067v102.4v137.387
				c0,13.653,11.093,25.6,25.6,25.6h17.787c4.432,28.732,28.931,50.347,59.013,50.347c30.082,0,54.581-21.615,59.013-50.347h148.964
				c15.722,28.093,45.729,46.933,80.45,46.933c20.678,0,39.913-6.913,55.406-18.604l51.26,53.59c1.707,1.707,3.413,2.56,5.973,2.56
				c1.707,0,4.267-0.853,5.973-2.56c3.413-3.413,3.413-8.533,0-11.947l-50.695-53c4.947-5.388,9.265-11.369,12.832-17.827H485.4z
				 M490.52,161.56c2.56,1.707,3.413,5.12,3.413,7.68v26.453h-102.4V110.36h52.053L490.52,161.56z M16.067,110.36h58.027
				c0.853,0,1.707,0.853,1.707,1.707v81.92c0,0.853-0.853,1.707-1.707,1.707H16.067V110.36z M101.4,400.493
				c-23.75,0-42.433-18.551-42.656-42.24c0.223-23.689,18.906-42.24,42.656-42.24c23.75,0,42.433,18.551,42.656,42.24
				C143.833,381.942,125.15,400.493,101.4,400.493z M160.531,349.293c-4.075-29.155-28.753-51.2-59.131-51.2
				c-0.138,0-0.274,0.009-0.412,0.01c-0.148-0.001-0.293-0.01-0.441-0.01c-29.867,0-54.613,22.187-58.88,51.2H24.6
				c-4.267,0-8.533-3.413-8.533-8.533v-59.733H255c5.12,0,8.533-3.413,8.533-8.533s-3.413-8.533-8.533-8.533H16.067v-17.067h204.8
				c5.12,0,8.533-3.413,8.533-8.533s-3.413-8.533-8.533-8.533h-204.8V212.76h58.027c10.24,0,18.773-8.533,18.773-18.773v-81.92
				c0-10.24-8.533-18.773-18.773-18.773H16.067V84.76c0-4.267,4.267-8.533,8.533-8.533h384c2.56,0,5.973,1.707,8.533,3.413
				l12.231,13.653h-40.391c-7.68,0-14.507,6.827-14.507,14.507v90.453c0,7.68,6.827,14.507,14.507,14.507h104.96v128
				c0,4.267-3.413,8.533-8.533,8.533h-7.541c2.679-8.617,4.127-17.784,4.127-27.307c0-51.2-40.96-92.16-92.16-92.16
				c-0.285,0-0.569,0.008-0.853,0.011c-0.285-0.003-0.568-0.011-0.853-0.011c-51.2,0-92.16,40.96-92.16,92.16
				c0,9.387,1.707,18.773,4.267,27.307H160.531z M322.722,355.578c-0.085-0.401-0.185-0.794-0.308-1.165
				c-4.096-8.191-6.548-16.928-7.368-25.775c-0.076-0.855-0.149-1.71-0.196-2.572c-0.014-0.246-0.021-0.493-0.032-0.739
				c-0.049-1.109-0.085-2.222-0.085-3.342c0-20.391,8.464-39.299,22.119-53.149c13.527-13.509,32.194-21.944,52.974-21.944
				c40.96,0,75.093,33.28,75.093,75.093s-33.28,75.093-75.093,75.093C360.282,397.08,335.016,380.028,322.722,355.578z"/>
		</g>
	</g>
</g>
<g>
</g>
<g>
</g>
<g>
</g>
<g>
</g>
<g>
</g>
<g>
</g>
<g>
</g>
<g>
</g>
<g>
</g>
<g>
</g>
<g>
</g>
<g>
</g>
<g>
</g>
<g>
</g>
<g>
</g>
</svg>
