<?xml version="1.0" standalone="no"?>
<!DOCTYPE svg PUBLIC "-//W3C//DTD SVG 20010904//EN"
 "http://www.w3.org/TR/2001/REC-SVG-20010904/DTD/svg10.dtd">
<svg version="1.0" xmlns="http://www.w3.org/2000/svg"
 width="512.000000pt" height="512.000000pt" viewBox="0 0 512.000000 512.000000"
 preserveAspectRatio="xMidYMid meet">

<g transform="translate(0.000000,512.000000) scale(0.100000,-0.100000)"
fill="#000000" stroke="none">
<path d="M1286 4930 c-486 -61 -895 -356 -1119 -805 -276 -553 -201 -1215 190
-1695 84 -103 2095 -2218 2119 -2229 14 -6 43 -14 64 -17 92 -15 42 -63 1152
1109 565 595 1046 1107 1071 1137 440 539 474 1298 84 1875 -220 325 -549 542
-928 611 -140 26 -373 23 -509 -5 -310 -65 -532 -189 -767 -429 l-82 -84 -108
109 c-221 219 -454 346 -741 404 -110 22 -325 32 -426 19z m414 -390 c99 -26
241 -90 331 -150 36 -24 144 -124 244 -226 184 -187 220 -214 287 -214 66 1
109 33 263 195 209 219 321 300 513 369 241 86 543 71 779 -40 204 -97 403
-295 513 -514 223 -441 151 -973 -181 -1335 -35 -38 -475 -503 -976 -1032
l-913 -963 -907 958 c-1083 1142 -1022 1076 -1091 1181 -382 581 -180 1391
423 1693 87 44 147 65 255 89 117 26 337 21 460 -11z"/>
</g>
</svg>
